<svg width="38" height="41" viewBox="0 0 38 41" fill="none" xmlns="http://www.w3.org/2000/svg">
<path d="M20.7363 0.0179367C20.7363 0.0396471 21.0261 0.810358 21.3911 1.73304C21.7452 2.65572 22.4322 4.40339 22.9044 5.63002C23.3767 6.85664 23.806 7.88787 23.8489 7.94215C23.9348 8.03984 33.1868 8.10497 33.1868 7.99642C33.1868 7.93129 32.1027 5.09812 30.6967 1.50508L30.1171 0.0396471L25.4267 0.00708199C22.8508 -0.00377369 20.7363 -0.00377369 20.7363 0.0179367Z" fill="#222222"/>
<path d="M0.0536658 10.9708C0.0965984 11.1119 0.78352 12.9356 1.59924 15.0414L3.08042 18.8624L7.78154 18.8733C10.3682 18.8733 12.4719 18.8299 12.4505 18.7865C12.4397 18.7322 11.7206 16.8977 10.8727 14.7158L9.31638 10.732H4.65819H0L0.0536658 10.9708Z" fill="#222222"/>
<path d="M12.4722 10.808C12.4722 10.8622 13.1698 12.675 14.0177 14.8569L15.5633 18.819L20.2537 18.8516L24.9334 18.8733L24.8582 18.6345C24.8153 18.4934 24.1176 16.6697 23.3019 14.5855L21.8207 10.7863L17.1518 10.7537C14.5759 10.7428 12.4722 10.7645 12.4722 10.808Z" fill="#222222"/>
<path d="M24.9545 10.8622C24.976 10.9382 25.6951 12.7727 26.5323 14.9329L28.0671 18.8733H32.7682H37.4586L36.6429 16.7783C36.2029 15.6385 35.4945 13.8148 35.0759 12.7402L34.3031 10.7863L29.602 10.7537C25.8561 10.732 24.9116 10.7537 24.9545 10.8622Z" fill="#222222"/>
<path d="M3.02677 22.2601C2.66184 23.1176 0.0214844 29.9781 0.0214844 30.0649C0.0214844 30.1192 1.92125 30.1626 4.67967 30.1626H9.33786L9.98185 28.5018C11.7099 24.0729 12.4719 22.1081 12.4719 22.0647C12.4719 22.043 10.3682 22.0213 7.80302 22.0213H3.1341L3.02677 22.2601Z" fill="#222222"/>
<path d="M15.5526 22.1514C14.1465 25.7662 12.4722 30.0756 12.4722 30.1191C12.4722 30.1408 14.5759 30.1516 17.1626 30.1408L21.8422 30.1082L23.3341 26.3089C24.1498 24.2139 24.8475 22.4011 24.8797 22.26L24.9441 22.0212H20.2752C16.6366 22.0212 15.5955 22.0537 15.5526 22.1514Z" fill="#222222"/>
<path d="M28.0457 22.2275C27.9384 22.4121 25.7274 28.0567 25.1907 29.4787L24.9331 30.1626H29.6235H34.3139L35.8487 26.2222C36.6966 24.062 37.4158 22.2275 37.448 22.1515C37.4909 22.0539 36.5249 22.0213 32.822 22.0213C28.3677 22.0213 28.1423 22.0321 28.0457 22.2275Z" fill="#222222"/>
<path d="M23.7738 33.0609C23.7416 33.1694 23.0332 34.9822 22.2175 37.0881C21.4018 39.1831 20.7363 40.9308 20.7363 40.9634C20.7363 40.9959 22.84 41.0068 25.416 40.9959L30.1064 40.9634L30.6108 39.6608C30.8899 38.9443 31.5661 37.2075 32.1135 35.8072C32.6609 34.4069 33.1331 33.1694 33.1653 33.0609C33.2083 32.8872 32.9399 32.8763 28.5286 32.8763C24.1602 32.8763 23.8382 32.8872 23.7738 33.0609Z" fill="#222222"/>
</svg>
