<svg width="130" height="41" viewBox="0 0 130 41" fill="none" xmlns="http://www.w3.org/2000/svg">
<path d="M65.4078 5.25011C64.0769 5.54319 62.6708 6.4116 61.78 7.48625C60.7925 8.68031 60.3417 9.89608 60.2666 11.5569C60.1593 13.7931 60.7281 15.3562 62.1556 16.8108C63.5617 18.2436 64.9785 18.8081 67.1036 18.8081C68.1662 18.7973 68.456 18.7647 69.1966 18.5042C71.8262 17.5923 73.4147 15.595 73.7689 12.7835C74.1231 9.89608 72.6849 7.09547 70.2055 5.85799C68.7243 5.11985 66.9963 4.90274 65.4078 5.25011ZM68.2843 7.71421C69.8942 8.20269 70.871 9.55957 71.032 11.5461C71.1929 13.5 70.3236 15.2802 68.8424 16.0183C68.3594 16.2572 68.0589 16.3223 67.2753 16.3549C66.1376 16.4091 65.6546 16.3006 64.8497 15.8121C64.0983 15.3562 63.508 14.5638 63.2289 13.6302C63.0357 13.0223 63.0143 12.6858 63.0465 11.6763C63.0787 10.6451 63.1323 10.3629 63.3685 9.84181C64.2164 7.98559 66.2557 7.10633 68.2843 7.71421Z" fill="#222222"/>
<path d="M103.07 5.19594C101.858 5.45646 100.634 6.31401 100.172 7.23669C99.6143 8.34391 99.668 9.97217 100.312 10.9274C100.859 11.7633 101.568 12.1649 103.661 12.8488C106.183 13.6846 106.72 14.108 106.569 15.1935C106.451 16.0944 105.775 16.5829 104.637 16.5938C103.618 16.5938 102.834 16.0402 102.673 15.1935L102.609 14.857H101.16H99.7109L99.7753 15.3672C100.119 17.7987 103.006 19.351 105.968 18.7214C107.943 18.298 109.242 16.8977 109.371 15.0741C109.446 13.9886 109.188 13.2396 108.512 12.5014C107.857 11.8067 107.181 11.4593 105.26 10.8514C103.103 10.1676 102.609 9.79849 102.609 8.84325C102.609 7.90971 103.221 7.36695 104.262 7.36695C104.595 7.36695 105.002 7.42123 105.174 7.48636C105.603 7.64919 106.151 8.21365 106.226 8.58272L106.301 8.88667H107.739H109.178V8.56101C109.178 8.09424 108.802 7.14985 108.416 6.68308C107.975 6.15119 107.267 5.66271 106.516 5.39133C105.818 5.14166 103.854 5.03311 103.07 5.19594Z" fill="#222222"/>
<path d="M47.5908 12.0021L47.623 18.7105L48.9432 18.7431L50.2526 18.7756V15.8882V13.0116H53.0969H55.9412L55.9627 15.8556L55.9949 18.7105H57.2828H58.5708L58.603 12.0021L58.6245 5.30448H57.2828H55.9412L55.9197 8.01825L55.8875 10.7429H53.0969H50.3063L50.2741 8.01825L50.2526 5.30448H48.911H47.5693L47.5908 12.0021Z" fill="#222222"/>
<path d="M75.3896 12.0021L75.4218 18.7105L76.7313 18.7431L78.0515 18.7756L78.0729 16.1378L78.1051 13.5001L78.6525 13.4675C79.0604 13.4458 79.2321 13.4784 79.3502 13.6303C79.4468 13.7389 80.0908 14.8461 80.7884 16.1053C81.4753 17.3536 82.1193 18.4717 82.2159 18.5694C82.3554 18.7431 82.5808 18.7648 83.7937 18.7648C84.5665 18.7648 85.2319 18.7322 85.2641 18.6996C85.2963 18.6671 84.6523 17.4947 83.8366 16.1053C83.0102 14.705 82.3125 13.5001 82.2911 13.4241C82.2481 13.3264 82.4842 13.1744 82.935 12.9682C83.8044 12.5882 84.5879 11.7633 84.9099 10.8948C85.2212 10.0699 85.2212 8.69126 84.9099 7.86628C84.6416 7.12813 83.9332 6.314 83.2356 5.92322C82.2159 5.36961 81.7115 5.30448 78.4056 5.30448H75.3682L75.3896 12.0021ZM81.3787 7.7143C82.7633 8.31133 82.7955 10.5366 81.4324 11.2205C81.0675 11.3942 80.7669 11.4267 79.5541 11.4376H78.1051L78.0729 9.59223C78.0622 8.58271 78.0729 7.68174 78.1051 7.60575C78.191 7.38865 80.8313 7.47549 81.3787 7.7143Z" fill="#222222"/>
<path d="M87.1748 9.83109C87.1748 13.5001 87.207 14.4988 87.3358 15.0632C87.7866 16.9954 89.139 18.2655 91.2105 18.7105C92.155 18.9168 92.7453 18.9168 93.7757 18.7105C95.2783 18.4175 96.6629 17.4731 97.3069 16.2682C97.8543 15.2478 97.908 14.7593 97.908 9.83109V5.30452H96.5663H95.2354L95.2032 9.93964C95.171 15.085 95.1925 14.9004 94.4412 15.7037C93.8401 16.3333 92.477 16.5612 91.4359 16.203C90.8026 15.9859 90.1479 15.2586 89.9762 14.5856C89.901 14.2708 89.8581 12.5883 89.8581 9.71168V5.30452H88.5164H87.1748V9.83109Z" fill="#222222"/>
<path d="M68.7779 22.3036C66.9425 22.7486 65.1608 24.1815 64.3773 25.8423C62.2951 30.2278 64.9032 35.2103 69.5829 35.8073C73.2644 36.2741 76.4199 34.0054 77.1498 30.3689C77.8689 26.765 75.7437 23.2371 72.2984 22.347C71.3109 22.0865 69.7332 22.0756 68.7779 22.3036ZM72.0408 24.8328C73.5649 25.419 74.5094 26.993 74.5094 28.9577C74.5094 30.4232 74.0694 31.5847 73.2 32.3988C72.3628 33.1912 71.8691 33.3649 70.4845 33.3649C69.4112 33.3649 69.2502 33.3432 68.692 33.061C67.9085 32.6702 67.0821 31.7692 66.7708 30.9442C66.4381 30.0867 66.363 28.3824 66.6205 27.4923C67.0499 25.9617 68.1125 24.9414 69.6044 24.6266C70.2376 24.4855 71.4075 24.594 72.0408 24.8328Z" fill="#222222"/>
<path d="M47.6337 22.3253C47.6015 22.3578 47.5693 25.3755 47.5693 29.0446V35.6987H48.911H50.2526V31.4435C50.2526 29.0988 50.2956 27.2318 50.3385 27.2969C50.3922 27.3512 51.1435 29.1531 52.0236 31.3024C52.893 33.4517 53.655 35.3188 53.7194 35.4491C53.8268 35.6879 53.8912 35.6987 54.8571 35.6987H55.8875L57.6048 31.4652L59.3221 27.2426L59.3543 31.4652L59.3758 35.6987H60.7175H62.0591L62.0376 28.9903L62.0054 22.2927L60.6316 22.2601C59.8481 22.2384 59.1933 22.271 59.1289 22.3361C59.0538 22.3904 58.0878 24.6157 56.9608 27.2752C55.8446 29.9347 54.8893 32.1166 54.8571 32.1166C54.8142 32.1166 53.8482 29.9021 52.7105 27.1992L50.6283 22.2927L49.1578 22.2818C48.3529 22.271 47.6659 22.2927 47.6337 22.3253Z" fill="#222222"/>
<path d="M78.9101 22.2601C78.9101 22.2818 78.8994 25.3104 78.8779 29.0011L78.8564 35.6987H82.2374C85.7364 35.6987 86.2301 35.6445 87.0673 35.2103C88.0333 34.7109 88.5485 34.0813 88.849 33.0284C89.2891 31.4978 88.4948 29.6742 87.0995 29.0554L86.638 28.8492L87.3034 28.3933C88.1406 27.8179 88.5485 27.1341 88.6451 26.1245C88.8275 24.0621 87.4752 22.6184 85.0817 22.347C84.266 22.2601 78.9101 22.1842 78.9101 22.2601ZM85.1997 24.8002C85.7257 25.191 85.9081 25.5384 85.9081 26.1354C85.9081 26.8301 85.6398 27.3078 85.0817 27.6008C84.706 27.7962 84.4592 27.8288 83.096 27.8288H81.5397L81.5075 26.168L81.4753 24.5071L83.1926 24.5397C84.7275 24.5723 84.9421 24.594 85.1997 24.8002ZM85.189 30.1518C85.9081 30.4883 86.1335 30.8248 86.1872 31.6172C86.2409 32.4531 86.0584 32.8547 85.4895 33.2238C85.1031 33.4626 84.9851 33.4734 83.3107 33.4734H81.5397L81.5075 31.8452C81.4968 30.9551 81.5075 30.1626 81.529 30.0867C81.5719 29.9781 81.9691 29.9455 83.1712 29.9455C84.4806 29.9455 84.8348 29.989 85.189 30.1518Z" fill="#222222"/>
<path d="M90.7919 22.3036C90.749 22.347 90.7168 25.3755 90.7168 29.0446V35.6987H92.0584H93.4001L93.3786 28.9903L93.3464 22.2927L92.1121 22.2601C91.4252 22.2384 90.8349 22.2601 90.7919 22.3036Z" fill="#222222"/>
<path d="M95.6538 28.9686V35.6987H99.1421H102.63V34.6349V33.582L100.484 33.6146L98.3371 33.6471L98.3156 27.9699L98.2834 22.2927L96.974 22.2601L95.6538 22.2276V28.9686Z" fill="#222222"/>
<path d="M103.994 22.3144C103.951 22.347 103.918 25.3755 103.918 29.0446V35.6987H105.26H106.602V28.9686V22.2384H105.335C104.638 22.2384 104.026 22.271 103.994 22.3144Z" fill="#222222"/>
<path d="M108.212 22.2927C108.201 22.3253 108.201 22.8246 108.201 23.3999L108.19 24.4637L109.929 24.518L111.657 24.5723L111.647 30.1301L111.636 35.6987H113.042H114.437V30.1084V24.518L116.165 24.4963L117.893 24.4637V23.3782V22.2927L113.053 22.2601C110.391 22.2493 108.212 22.2601 108.212 22.2927Z" fill="#222222"/>
<path d="M118.408 22.3361C118.408 22.3904 118.526 22.6401 118.666 22.9006C118.805 23.1611 119.825 25.1259 120.92 27.2643L122.916 31.1505V33.43V35.6987H124.258H125.599V33.3432V30.9985L127.8 26.689C129.013 24.3226 130 22.347 130 22.3036C130 22.2601 129.335 22.2493 128.53 22.2601L127.059 22.2927L125.664 25.3104C124.902 26.9712 124.236 28.2847 124.193 28.2413C124.15 28.187 123.528 26.8844 122.798 25.3321C122.079 23.7798 121.446 22.4447 121.381 22.3687C121.263 22.2167 118.408 22.1733 118.408 22.3361Z" fill="#222222"/>
<path d="M20.7363 0.0179367C20.7363 0.0396471 21.0261 0.810358 21.3911 1.73304C21.7452 2.65572 22.4322 4.40339 22.9044 5.63002C23.3767 6.85664 23.806 7.88787 23.8489 7.94215C23.9348 8.03984 33.1868 8.10497 33.1868 7.99642C33.1868 7.93129 32.1027 5.09812 30.6967 1.50508L30.1171 0.0396471L25.4267 0.00708199C22.8508 -0.00377369 20.7363 -0.00377369 20.7363 0.0179367Z" fill="#222222"/>
<path d="M0.0536658 10.9708C0.0965984 11.1119 0.78352 12.9356 1.59924 15.0414L3.08042 18.8624L7.78154 18.8733C10.3682 18.8733 12.4719 18.8299 12.4505 18.7865C12.4397 18.7322 11.7206 16.8977 10.8727 14.7158L9.31638 10.732H4.65819H0L0.0536658 10.9708Z" fill="#222222"/>
<path d="M12.4722 10.808C12.4722 10.8622 13.1698 12.675 14.0177 14.8569L15.5633 18.819L20.2537 18.8516L24.9334 18.8733L24.8582 18.6345C24.8153 18.4934 24.1176 16.6697 23.3019 14.5855L21.8207 10.7863L17.1518 10.7537C14.5759 10.7428 12.4722 10.7645 12.4722 10.808Z" fill="#222222"/>
<path d="M24.9545 10.8622C24.976 10.9382 25.6951 12.7727 26.5323 14.9329L28.0671 18.8733H32.7682H37.4586L36.6429 16.7783C36.2029 15.6385 35.4945 13.8148 35.0759 12.7402L34.3031 10.7863L29.602 10.7537C25.8561 10.732 24.9116 10.7537 24.9545 10.8622Z" fill="#222222"/>
<path d="M3.02677 22.2601C2.66184 23.1176 0.0214844 29.9781 0.0214844 30.0649C0.0214844 30.1192 1.92125 30.1626 4.67967 30.1626H9.33786L9.98185 28.5018C11.7099 24.0729 12.4719 22.1081 12.4719 22.0647C12.4719 22.043 10.3682 22.0213 7.80302 22.0213H3.1341L3.02677 22.2601Z" fill="#222222"/>
<path d="M15.5526 22.1514C14.1465 25.7662 12.4722 30.0756 12.4722 30.1191C12.4722 30.1408 14.5759 30.1516 17.1626 30.1408L21.8422 30.1082L23.3341 26.3089C24.1498 24.2139 24.8475 22.4011 24.8797 22.26L24.9441 22.0212H20.2752C16.6366 22.0212 15.5955 22.0537 15.5526 22.1514Z" fill="#222222"/>
<path d="M28.0457 22.2275C27.9384 22.4121 25.7274 28.0567 25.1907 29.4787L24.9331 30.1626H29.6235H34.3139L35.8487 26.2222C36.6966 24.062 37.4158 22.2275 37.448 22.1515C37.4909 22.0539 36.5249 22.0213 32.822 22.0213C28.3677 22.0213 28.1423 22.0321 28.0457 22.2275Z" fill="#222222"/>
<path d="M23.7738 33.0609C23.7416 33.1694 23.0332 34.9822 22.2175 37.0881C21.4018 39.1831 20.7363 40.9308 20.7363 40.9634C20.7363 40.9959 22.84 41.0068 25.416 40.9959L30.1064 40.9634L30.6108 39.6608C30.8899 38.9443 31.5661 37.2075 32.1135 35.8072C32.6609 34.4069 33.1331 33.1694 33.1653 33.0609C33.2083 32.8872 32.9399 32.8763 28.5286 32.8763C24.1602 32.8763 23.8382 32.8872 23.7738 33.0609Z" fill="#222222"/>
</svg>
