<svg width="50" height="50" viewBox="0 0 50 50" fill="none" xmlns="http://www.w3.org/2000/svg">
<rect width="50" height="50" rx="25" fill="white"/>
<path d="M32.9998 13H16.9998C16.4565 12.9225 15.9025 12.9725 15.3819 13.1461C14.8612 13.3197 14.3881 13.6121 14 14.0002C13.6119 14.3883 13.3195 14.8614 13.1459 15.3821C12.9723 15.9027 12.9223 16.4567 12.9998 17V37L16.9998 33H32.9998C33.5431 33.0775 34.0971 33.0275 34.6177 32.8539C35.1384 32.6803 35.6115 32.3879 35.9996 31.9998C36.3877 31.6117 36.6801 31.1386 36.8537 30.6179C37.0273 30.0973 37.0773 29.5433 36.9998 29V17C37.0773 16.4567 37.0273 15.9027 36.8537 15.3821C36.6801 14.8614 36.3877 14.3883 35.9996 14.0002C35.6115 13.6121 35.1384 13.3197 34.6177 13.1461C34.0971 12.9725 33.5431 12.9225 32.9998 13ZM26.3331 26.6667H19.6665C19.4013 26.6667 19.1469 26.5613 18.9594 26.3738C18.7718 26.1862 18.6665 25.9319 18.6665 25.6667C18.6665 25.4014 18.7718 25.1471 18.9594 24.9596C19.1469 24.772 19.4013 24.6667 19.6665 24.6667H26.3331C26.5984 24.6667 26.8527 24.772 27.0402 24.9596C27.2278 25.1471 27.3331 25.4014 27.3331 25.6667C27.3331 25.9319 27.2278 26.1862 27.0402 26.3738C26.8527 26.5613 26.5984 26.6667 26.3331 26.6667ZM30.3331 21.3333H19.6665C19.4013 21.3333 19.1469 21.228 18.9594 21.0404C18.7718 20.8529 18.6665 20.5985 18.6665 20.3333C18.6665 20.0681 18.7718 19.8138 18.9594 19.6262C19.1469 19.4387 19.4013 19.3333 19.6665 19.3333H30.3331C30.5984 19.3333 30.8527 19.4387 31.0402 19.6262C31.2278 19.8138 31.3331 20.0681 31.3331 20.3333C31.3331 20.5985 31.2278 20.8529 31.0402 21.0404C30.8527 21.228 30.5984 21.3333 30.3331 21.3333Z" fill="#FFC300"/>
</svg>
