<svg width="50" height="50" viewBox="0 0 50 50" fill="none" xmlns="http://www.w3.org/2000/svg">
<rect width="50" height="50" rx="25" fill="#FFC300"/>
<g clip-path="url(#clip0_1_322)">
<path d="M40.0293 35.8839C40.3009 35.8839 40.5142 35.6657 40.5142 35.399C40.5142 35.1275 40.3009 34.9142 40.0293 34.9142H39.5348V32.0439C39.5348 30.7057 38.4584 29.6196 37.1299 29.6196H33.896C33.736 29.6196 33.5857 29.5372 33.4984 29.4111L31.3893 24.8827C31.3845 24.8681 31.3748 24.8536 31.3651 24.8342C31.1033 24.4075 30.6281 24.1457 30.1239 24.1457H14.7542C14.3178 24.1457 13.9009 24.3396 13.6245 24.6887C13.6099 24.7033 13.6003 24.7178 13.5906 24.7324L10.6669 29.3093C10.536 29.479 10.4633 29.6875 10.4633 29.9008V34.9142H9.96874C9.70207 34.9142 9.48389 35.1275 9.48389 35.399C9.48389 35.6657 9.70207 35.8839 9.96874 35.8839H12.0827C12.0536 35.7287 12.0439 35.5639 12.0439 35.399C12.0439 33.4596 13.6196 31.8839 15.559 31.8839C17.4984 31.8839 19.0742 33.4596 19.0742 35.399C19.0742 35.5639 19.0645 35.7287 19.0354 35.8839H31.3554C31.3263 35.7287 31.3166 35.5639 31.3166 35.399C31.3166 33.4596 32.8924 31.8839 34.8318 31.8839C36.7712 31.8839 38.3469 33.4596 38.3469 35.399C38.3469 35.5639 38.3372 35.7287 38.3081 35.8839H40.0293ZM17.6924 30.919V30.9336H13.1348C12.9554 30.9336 12.7954 30.8414 12.7081 30.6863C12.6257 30.5311 12.6306 30.3421 12.7227 30.1918L15.016 26.5554C15.1033 26.4148 15.2584 26.3275 15.4281 26.3275H18.9045L17.6924 30.919ZM18.7251 30.9336L19.9324 26.3421C19.9372 26.3372 19.9324 26.3324 19.9372 26.3275H22.8996C22.8996 26.3324 22.8996 26.3372 22.9045 26.3421L24.1118 30.9336H18.7251ZM31.7481 30.6863C31.6609 30.8414 31.5009 30.9336 31.3215 30.9336H25.1445C25.1445 30.9287 25.1445 30.9239 25.1396 30.919L23.9324 26.3275H29.1396C29.3093 26.3275 29.4693 26.4196 29.5566 26.5651C29.5712 26.5893 30.953 28.9505 31.7336 30.1918C31.8257 30.3421 31.8306 30.5311 31.7481 30.6863Z" fill="white"/>
<path d="M15.5591 32.8536C14.1531 32.8536 13.0137 33.9978 13.0137 35.399C13.0137 36.8051 14.1531 37.9445 15.5591 37.9445C16.9603 37.9445 18.1046 36.8051 18.1046 35.399C18.1046 33.9978 16.9603 32.8536 15.5591 32.8536Z" fill="white"/>
<path d="M34.8316 32.8536C33.4304 32.8536 32.2861 33.9978 32.2861 35.399C32.2861 36.8051 33.4304 37.9445 34.8316 37.9445C36.2376 37.9445 37.377 36.8051 37.377 35.399C37.377 33.9978 36.2376 32.8536 34.8316 32.8536Z" fill="white"/>
<path d="M25.2851 23.079H30.25C30.5215 23.079 30.7348 22.8608 30.7348 22.5942V18.5021C30.7348 18.2354 30.5215 18.0172 30.25 18.0172H28.2524V19.496C28.2524 19.7627 28.0342 19.9808 27.7676 19.9808C27.5009 19.9808 27.2827 19.7627 27.2827 19.496V18.0172H25.2851C25.0185 18.0172 24.8003 18.2354 24.8003 18.5021V22.5942C24.8003 22.8608 25.0185 23.079 25.2851 23.079Z" fill="white"/>
<path d="M20.3431 19.3433L22.8323 16.7566H20.9346V15.6541C20.9346 15.1193 20.4997 14.6844 19.9649 14.6844H17.5407C17.0059 14.6844 16.571 15.1193 16.571 15.6541V16.7566H14.7319L17.1659 19.3433H20.3431ZM17.5402 15.6541H19.9644V16.7566H17.5402V15.6541Z" fill="white"/>
<path d="M20.5492 20.313H16.9555C16.8221 20.313 16.6941 20.2577 16.602 20.1602L13.9053 17.2938V22.5942C13.9053 22.8609 14.1186 23.079 14.3901 23.079H23.1174C23.3841 23.079 23.6022 22.8609 23.6022 22.5942V17.3544L20.8982 20.1646C20.8076 20.2592 20.681 20.313 20.5492 20.313Z" fill="white"/>
<path d="M10.9404 39.5464H9.97069C9.70257 39.5464 9.48584 39.7637 9.48584 40.0313C9.48584 40.2989 9.70257 40.5161 9.97069 40.5161H10.9404C11.2085 40.5161 11.4252 40.2989 11.4252 40.0313C11.4252 39.7637 11.2085 39.5464 10.9404 39.5464Z" fill="white"/>
<path d="M15.0966 39.5464H14.1269C13.8588 39.5464 13.6421 39.7637 13.6421 40.0313C13.6421 40.2989 13.8588 40.5161 14.1269 40.5161H15.0966C15.3648 40.5161 15.5815 40.2989 15.5815 40.0313C15.5815 39.7637 15.3648 39.5464 15.0966 39.5464Z" fill="white"/>
<path d="M19.2524 39.5464H18.2827C18.0146 39.5464 17.7979 39.7637 17.7979 40.0313C17.7979 40.2989 18.0146 40.5161 18.2827 40.5161H19.2524C19.5205 40.5161 19.7372 40.2989 19.7372 40.0313C19.7372 39.7637 19.52 39.5464 19.2524 39.5464Z" fill="white"/>
<path d="M23.4082 39.5464H22.4385C22.1703 39.5464 21.9536 39.7637 21.9536 40.0313C21.9536 40.2989 22.1703 40.5161 22.4385 40.5161H23.4082C23.6763 40.5161 23.893 40.2989 23.893 40.0313C23.893 39.7637 23.6763 39.5464 23.4082 39.5464Z" fill="white"/>
<path d="M27.5639 39.5464H26.5942C26.3261 39.5464 26.1094 39.7637 26.1094 40.0313C26.1094 40.2989 26.3261 40.5161 26.5942 40.5161H27.5639C27.832 40.5161 28.0488 40.2989 28.0488 40.0313C28.0488 39.7637 27.832 39.5464 27.5639 39.5464Z" fill="white"/>
<path d="M31.7197 39.5464H30.75C30.4819 39.5464 30.2651 39.7637 30.2651 40.0313C30.2651 40.2989 30.4819 40.5161 30.75 40.5161H31.7197C31.9878 40.5161 32.2045 40.2989 32.2045 40.0313C32.2045 39.7637 31.9878 39.5464 31.7197 39.5464Z" fill="white"/>
<path d="M35.8754 39.5464H34.9057C34.6376 39.5464 34.4209 39.7637 34.4209 40.0313C34.4209 40.2989 34.6376 40.5161 34.9057 40.5161H35.8754C36.1436 40.5161 36.3603 40.2989 36.3603 40.0313C36.3603 39.7637 36.1436 39.5464 35.8754 39.5464Z" fill="white"/>
<path d="M40.0312 39.5464H39.0615C38.7934 39.5464 38.5767 39.7637 38.5767 40.0313C38.5767 40.2989 38.7934 40.5161 39.0615 40.5161H40.0312C40.2993 40.5161 40.5161 40.2989 40.5161 40.0313C40.5161 39.7637 40.2993 39.5464 40.0312 39.5464Z" fill="white"/>
<path d="M9.96874 10.4536C10.7736 10.4536 11.4233 11.1081 11.4233 11.9081C11.4233 12.1796 11.6415 12.393 11.9081 12.393C12.1796 12.393 12.393 12.1796 12.393 11.9081C12.393 11.1081 13.0475 10.4536 13.8475 10.4536C14.119 10.4536 14.3324 10.2403 14.3324 9.96874C14.3324 9.70207 14.119 9.48389 13.8475 9.48389C13.0572 9.48389 12.3542 9.86692 11.9081 10.4584C11.4669 9.86692 10.7639 9.48389 9.96874 9.48389C9.70207 9.48389 9.48389 9.70207 9.48389 9.96874C9.48389 10.2403 9.70207 10.4536 9.96874 10.4536Z" fill="white"/>
<path d="M34.022 15.3021H38.3323C39.5347 15.3021 40.5141 14.3227 40.5141 13.1203C40.5141 11.7816 39.3287 10.7755 38.0511 10.953C37.1527 8.70717 33.8669 9.16875 33.5614 11.5154C32.7226 11.719 32.0972 12.4803 32.0972 13.3821C32.0972 14.4439 32.9602 15.3021 34.022 15.3021Z" fill="white"/>
</g>
<defs>
<clipPath id="clip0_1_322">
<rect width="32" height="32" fill="white" transform="translate(9 9)"/>
</clipPath>
</defs>
</svg>
