<svg width="130" height="41" viewBox="0 0 130 41" fill="none" xmlns="http://www.w3.org/2000/svg">
<path d="M65.4079 5.25011C64.077 5.54319 62.6709 6.4116 61.7801 7.48625C60.7926 8.68031 60.3418 9.89608 60.2667 11.5569C60.1594 13.7931 60.7282 15.3562 62.1558 16.8108C63.5618 18.2436 64.9786 18.8081 67.1037 18.8081C68.1663 18.7973 68.4561 18.7647 69.1967 18.5042C71.8263 17.5923 73.4148 15.595 73.769 12.7835C74.1232 9.89608 72.685 7.09547 70.2056 5.85799C68.7244 5.11985 66.9964 4.90274 65.4079 5.25011ZM68.2844 7.71421C69.8944 8.20269 70.8711 9.55957 71.0321 11.5461C71.1931 13.5 70.3237 15.2802 68.8425 16.0183C68.3595 16.2572 68.059 16.3223 67.2755 16.3549C66.1378 16.4091 65.6548 16.3006 64.8498 15.8121C64.0985 15.3562 63.5081 14.5638 63.2291 13.6302C63.0359 13.0223 63.0144 12.6858 63.0466 11.6763C63.0788 10.6451 63.1325 10.3629 63.3686 9.84181C64.2165 7.98559 66.2558 7.10633 68.2844 7.71421Z" fill="#222222"/>
<path d="M103.071 5.19594C101.858 5.45646 100.634 6.31401 100.173 7.23669C99.6145 8.34391 99.6681 9.97217 100.312 10.9274C100.86 11.7633 101.568 12.1649 103.661 12.8488C106.183 13.6846 106.72 14.108 106.57 15.1935C106.451 16.0944 105.775 16.5829 104.638 16.5938C103.618 16.5938 102.834 16.0402 102.673 15.1935L102.609 14.857H101.16H99.7111L99.7755 15.3672C100.119 17.7987 103.006 19.351 105.968 18.7214C107.943 18.298 109.242 16.8977 109.371 15.0741C109.446 13.9886 109.188 13.2396 108.512 12.5014C107.858 11.8067 107.181 11.4593 105.26 10.8514C103.103 10.1676 102.609 9.79849 102.609 8.84325C102.609 7.90971 103.221 7.36695 104.262 7.36695C104.595 7.36695 105.003 7.42123 105.174 7.48636C105.604 7.64919 106.151 8.21365 106.226 8.58272L106.301 8.88667H107.739H109.178V8.56101C109.178 8.09424 108.802 7.14985 108.416 6.68308C107.976 6.15119 107.267 5.66271 106.516 5.39133C105.818 5.14166 103.854 5.03311 103.071 5.19594Z" fill="#222222"/>
<path d="M47.5908 12.0021L47.623 18.7105L48.9432 18.7431L50.2526 18.7756V15.8882V13.0116H53.0969H55.9412L55.9627 15.8556L55.9949 18.7105H57.2828H58.5708L58.603 12.0021L58.6245 5.30448H57.2828H55.9412L55.9197 8.01825L55.8875 10.7429H53.0969H50.3063L50.2741 8.01825L50.2526 5.30448H48.911H47.5693L47.5908 12.0021Z" fill="#222222"/>
<path d="M75.3896 12.0021L75.4218 18.7105L76.7313 18.7431L78.0515 18.7756L78.0729 16.1378L78.1051 13.5001L78.6525 13.4675C79.0604 13.4458 79.2321 13.4784 79.3502 13.6303C79.4468 13.7389 80.0908 14.8461 80.7884 16.1053C81.4753 17.3536 82.1193 18.4717 82.2159 18.5694C82.3554 18.7431 82.5808 18.7648 83.7937 18.7648C84.5665 18.7648 85.2319 18.7322 85.2641 18.6996C85.2963 18.6671 84.6523 17.4947 83.8366 16.1053C83.0102 14.705 82.3125 13.5001 82.2911 13.4241C82.2481 13.3264 82.4842 13.1744 82.935 12.9682C83.8044 12.5882 84.5879 11.7633 84.9099 10.8948C85.2212 10.0699 85.2212 8.69126 84.9099 7.86628C84.6416 7.12813 83.9332 6.314 83.2356 5.92322C82.2159 5.36961 81.7115 5.30448 78.4056 5.30448H75.3682L75.3896 12.0021ZM81.3787 7.7143C82.7633 8.31133 82.7955 10.5366 81.4324 11.2205C81.0675 11.3942 80.7669 11.4267 79.5541 11.4376H78.1051L78.0729 9.59223C78.0622 8.58271 78.0729 7.68174 78.1051 7.60575C78.191 7.38865 80.8313 7.47549 81.3787 7.7143Z" fill="#222222"/>
<path d="M87.1747 9.83109C87.1747 13.5001 87.2069 14.4988 87.3357 15.0632C87.7865 16.9954 89.1389 18.2655 91.2104 18.7105C92.1549 18.9168 92.7452 18.9168 93.7756 18.7105C95.2782 18.4175 96.6628 17.4731 97.3068 16.2682C97.8542 15.2478 97.9078 14.7593 97.9078 9.83109V5.30452H96.5662H95.2353L95.2031 9.93964C95.1709 15.085 95.1924 14.9004 94.441 15.7037C93.84 16.3333 92.4769 16.5612 91.4357 16.203C90.8025 15.9859 90.1478 15.2586 89.976 14.5856C89.9009 14.2708 89.858 12.5883 89.858 9.71168V5.30452H88.5163H87.1747V9.83109Z" fill="#222222"/>
<path d="M68.778 22.3036C66.9427 22.7486 65.161 24.1815 64.3774 25.8423C62.2952 30.2278 64.9034 35.2103 69.583 35.8073C73.2645 36.2741 76.42 34.0054 77.1499 30.3689C77.869 26.765 75.7439 23.2371 72.2985 22.347C71.3111 22.0865 69.7333 22.0756 68.778 22.3036ZM72.0409 24.8328C73.565 25.419 74.5095 26.993 74.5095 28.9577C74.5095 30.4232 74.0695 31.5847 73.2001 32.3988C72.3629 33.1912 71.8692 33.3649 70.4846 33.3649C69.4113 33.3649 69.2503 33.3432 68.6922 33.061C67.9086 32.6702 67.0822 31.7692 66.7709 30.9442C66.4382 30.0867 66.3631 28.3824 66.6207 27.4923C67.05 25.9617 68.1126 24.9414 69.6045 24.6266C70.2377 24.4855 71.4077 24.594 72.0409 24.8328Z" fill="#222222"/>
<path d="M47.6337 22.3253C47.6015 22.3578 47.5693 25.3755 47.5693 29.0446V35.6987H48.911H50.2526V31.4435C50.2526 29.0988 50.2956 27.2318 50.3385 27.2969C50.3922 27.3512 51.1435 29.1531 52.0236 31.3024C52.893 33.4517 53.655 35.3188 53.7194 35.4491C53.8268 35.6879 53.8912 35.6987 54.8571 35.6987H55.8875L57.6048 31.4652L59.3221 27.2426L59.3543 31.4652L59.3758 35.6987H60.7175H62.0591L62.0376 28.9903L62.0054 22.2927L60.6316 22.2601C59.8481 22.2384 59.1933 22.271 59.1289 22.3361C59.0538 22.3904 58.0878 24.6157 56.9608 27.2752C55.8446 29.9347 54.8893 32.1166 54.8571 32.1166C54.8142 32.1166 53.8482 29.9021 52.7105 27.1992L50.6283 22.2927L49.1578 22.2818C48.3529 22.271 47.6659 22.2927 47.6337 22.3253Z" fill="#222222"/>
<path d="M78.9102 22.2601C78.9102 22.2818 78.8995 25.3104 78.878 29.0011L78.8566 35.6987H82.2375C85.7365 35.6987 86.2302 35.6445 87.0674 35.2103C88.0334 34.7109 88.5486 34.0813 88.8491 33.0284C89.2892 31.4978 88.4949 29.6742 87.0996 29.0554L86.6381 28.8492L87.3036 28.3933C88.1407 27.8179 88.5486 27.1341 88.6452 26.1245C88.8277 24.0621 87.4753 22.6184 85.0818 22.347C84.2661 22.2601 78.9102 22.1842 78.9102 22.2601ZM85.1999 24.8002C85.7258 25.191 85.9083 25.5384 85.9083 26.1354C85.9083 26.8301 85.6399 27.3078 85.0818 27.6008C84.7061 27.7962 84.4593 27.8288 83.0962 27.8288H81.5399L81.5077 26.168L81.4755 24.5071L83.1928 24.5397C84.7276 24.5723 84.9423 24.594 85.1999 24.8002ZM85.1891 30.1518C85.9083 30.4883 86.1336 30.8248 86.1873 31.6172C86.241 32.4531 86.0585 32.8547 85.4897 33.2238C85.1033 33.4626 84.9852 33.4734 83.3108 33.4734H81.5399L81.5077 31.8452C81.4969 30.9551 81.5077 30.1626 81.5291 30.0867C81.5721 29.9781 81.9692 29.9455 83.1713 29.9455C84.4807 29.9455 84.8349 29.989 85.1891 30.1518Z" fill="#222222"/>
<path d="M90.7918 22.3036C90.7489 22.347 90.7167 25.3755 90.7167 29.0446V35.6987H92.0583H93.4L93.3785 28.9903L93.3463 22.2927L92.112 22.2601C91.4251 22.2384 90.8347 22.2601 90.7918 22.3036Z" fill="#222222"/>
<path d="M95.6539 28.9686V35.6987H99.1422H102.63V34.6349V33.582L100.484 33.6146L98.3372 33.6471L98.3158 27.9699L98.2836 22.2927L96.9741 22.2601L95.6539 22.2276V28.9686Z" fill="#222222"/>
<path d="M103.994 22.3144C103.951 22.347 103.918 25.3755 103.918 29.0446V35.6987H105.26H106.602V28.9686V22.2384H105.335C104.638 22.2384 104.026 22.271 103.994 22.3144Z" fill="#222222"/>
<path d="M108.212 22.2927C108.201 22.3253 108.201 22.8246 108.201 23.3999L108.19 24.4637L109.929 24.518L111.657 24.5723L111.646 30.1301L111.636 35.6987H113.042H114.437V30.1084V24.518L116.165 24.4963L117.893 24.4637V23.3782V22.2927L113.052 22.2601C110.39 22.2493 108.212 22.2601 108.212 22.2927Z" fill="#222222"/>
<path d="M118.408 22.3361C118.408 22.3904 118.526 22.6401 118.666 22.9006C118.805 23.1611 119.825 25.1259 120.92 27.2643L122.916 31.1505V33.43V35.6987H124.258H125.599V33.3432V30.9985L127.8 26.689C129.013 24.3226 130 22.347 130 22.3036C130 22.2601 129.335 22.2493 128.53 22.2601L127.059 22.2927L125.664 25.3104C124.902 26.9712 124.236 28.2847 124.193 28.2413C124.15 28.187 123.528 26.8844 122.798 25.3321C122.079 23.7798 121.446 22.4447 121.381 22.3687C121.263 22.2167 118.408 22.1733 118.408 22.3361Z" fill="#222222"/>
<path d="M20.7365 0.0179367C20.7365 0.0396469 21.0262 0.810358 21.3912 1.73304C21.7454 2.65572 22.4323 4.40339 22.9045 5.63002C23.3768 6.85664 23.8061 7.88787 23.8491 7.94215C23.9349 8.03984 33.1869 8.10497 33.1869 7.99642C33.1869 7.93129 32.1029 5.09812 30.6968 1.50508L30.1172 0.0396469L25.4268 0.00708162C22.8509 -0.00377346 20.7365 -0.00377346 20.7365 0.0179367Z" fill="#222222"/>
<path d="M0.0536658 10.9708C0.0965984 11.1119 0.78352 12.9356 1.59924 15.0414L3.08042 18.8624L7.78154 18.8733C10.3682 18.8733 12.4719 18.8299 12.4505 18.7865C12.4397 18.7322 11.7206 16.8977 10.8727 14.7158L9.31638 10.732H4.65819H0L0.0536658 10.9708Z" fill="#222222"/>
<path d="M12.4719 10.808C12.4719 10.8622 13.1696 12.675 14.0175 14.8569L15.5631 18.819L20.2535 18.8516L24.9331 18.8733L24.858 18.6345C24.8151 18.4934 24.1174 16.6697 23.3017 14.5855L21.8205 10.7863L17.1516 10.7537C14.5756 10.7428 12.4719 10.7645 12.4719 10.808Z" fill="#222222"/>
<path d="M24.9546 10.8622C24.9761 10.9382 25.6952 12.7727 26.5324 14.9329L28.0672 18.8733H32.7684H37.4588L36.643 16.7783C36.203 15.6385 35.4946 13.8148 35.076 12.7402L34.3032 10.7863L29.6021 10.7537C25.8562 10.732 24.9117 10.7537 24.9546 10.8622Z" fill="#222222"/>
<path d="M3.02677 22.2601C2.66184 23.1176 0.0214844 29.9781 0.0214844 30.0649C0.0214844 30.1192 1.92125 30.1626 4.67967 30.1626H9.33786L9.98185 28.5018C11.7099 24.0729 12.4719 22.1081 12.4719 22.0647C12.4719 22.043 10.3682 22.0213 7.80302 22.0213H3.1341L3.02677 22.2601Z" fill="#222222"/>
<path d="M15.5523 22.1514C14.1463 25.7662 12.4719 30.0756 12.4719 30.1191C12.4719 30.1408 14.5756 30.1516 17.1623 30.1408L21.842 30.1082L23.3339 26.3089C24.1496 24.2139 24.8473 22.4011 24.8795 22.26L24.9439 22.0212H20.2749C16.6364 22.0212 15.5953 22.0537 15.5523 22.1514Z" fill="#222222"/>
<path d="M28.0457 22.2275C27.9384 22.4121 25.7274 28.0567 25.1907 29.4787L24.9331 30.1626H29.6235H34.3139L35.8487 26.2222C36.6966 24.062 37.4158 22.2275 37.448 22.1515C37.4909 22.0539 36.5249 22.0213 32.822 22.0213C28.3677 22.0213 28.1423 22.0321 28.0457 22.2275Z" fill="#222222"/>
<path d="M23.7739 33.0609C23.7417 33.1694 23.0333 34.9822 22.2176 37.0881C21.4019 39.1831 20.7365 40.9308 20.7365 40.9634C20.7365 40.9959 22.8401 41.0068 25.4161 40.9959L30.1065 40.9634L30.611 39.6608C30.89 38.9443 31.5662 37.2075 32.1136 35.8072C32.661 34.4069 33.1332 33.1694 33.1654 33.0609C33.2084 32.8872 32.94 32.8763 28.5287 32.8763C24.1603 32.8763 23.8383 32.8872 23.7739 33.0609Z" fill="#222222"/>
</svg>
